<svg width="134" height="240" viewBox="0 0 134 240" fill="none" xmlns="http://www.w3.org/2000/svg">
<path d="M36.6827 159.385C36.6827 159.385 22.4769 188.686 24.3466 205.389C26.2174 222.09 27.3009 242.246 27.3009 242.246L80.9681 247.294C80.9681 247.294 89.4931 227.672 90.288 215.491C91.0813 203.31 91.3499 189.595 91.3499 189.595L92.8415 154.455L39.3516 149.423L36.6827 159.385Z" fill="#111311" stroke="#111311" stroke-width="0.853263" stroke-miterlimit="10" stroke-linecap="round" stroke-linejoin="round"/>
<path d="M58.8921 191.746C58.8921 191.746 65.2245 211.902 67.2068 227.399C69.189 242.896 68.6836 245.613 68.6836 245.613" stroke="#111311" stroke-width="0.853263" stroke-miterlimit="10" stroke-linecap="round" stroke-linejoin="round"/>
<path d="M66.5782 209.012C66.5782 209.012 77.029 201.625 81.1058 192.018" stroke="#111311" stroke-width="0.853263" stroke-miterlimit="10" stroke-linecap="round" stroke-linejoin="round"/>
<path d="M77.8539 71.7428L51.8017 77.9809C51.8017 77.9809 58.9489 93.651 59.3219 115.161C59.694 136.671 55.7982 158.147 55.7982 158.147C55.7982 158.147 61.8139 162.789 74.3138 162.49C86.8146 162.191 91.3918 155.404 91.3918 155.404C91.3918 155.404 94.8907 119.821 92.0541 105.297C89.2157 90.7741 77.8539 71.7428 77.8539 71.7428Z" fill="#21A038" stroke="#111311" stroke-width="0.853263" stroke-miterlimit="10" stroke-linecap="round" stroke-linejoin="round"/>
<path d="M46.4862 5.30006C46.4862 5.30006 40.4577 4.23063 37.0061 11.123C33.5553 18.0155 23.251 42.2203 24.013 47.83C24.7759 53.4399 27.754 55.5658 28.2946 61.6573C28.8342 67.7505 25.4961 71.1289 25.4961 71.1289C25.4961 71.1289 27.3279 74.6574 32.7564 75.3343C38.1856 76.0122 46.9161 72.3005 52.5301 71.4846C58.1447 70.6697 70.3099 70.6379 77.9877 70.1831C85.6646 69.729 87.9889 64.0737 87.9889 64.0737C87.9889 64.0737 82.7983 64.0898 82.8895 60.7427C82.9815 57.3948 88.6948 45.3446 88.0033 36.553C87.3127 27.7615 76.3636 18.0069 71.6103 13.1972C66.857 8.3876 62.3207 4.43792 56.7318 3.74508C51.1429 3.05224 47.7157 3.23384 46.4862 5.30006Z" fill="#111311" stroke="#111311" stroke-width="0.853263" stroke-miterlimit="10" stroke-linecap="round" stroke-linejoin="round"/>
<path d="M39.6136 35.9051C39.6136 35.9051 33.8848 43.9981 33.5929 51.6167C33.3017 59.2353 38.7166 60.2547 39.9313 59.3743" stroke="#111311" stroke-width="0.853263" stroke-miterlimit="10" stroke-linecap="round" stroke-linejoin="round"/>
<path d="M72.2002 26.9044C72.2002 26.9044 82.6772 39.2325 83.3968 50.9654" stroke="#111311" stroke-width="0.853263" stroke-miterlimit="10" stroke-linecap="round" stroke-linejoin="round"/>
<path d="M51.7601 56.2496L55.2481 72.0428C55.2481 72.0428 64.8519 86.7116 69.9803 85.2508C75.1079 83.7892 72.0785 69.7285 72.1484 67.7925C72.2183 65.8566 71.8709 56.287 71.8709 56.287C71.8709 56.287 67.8053 61.5569 65.6137 61.351C63.422 61.1451 51.7601 56.2496 51.7601 56.2496Z" fill="#9D9D9D" stroke="#111311" stroke-width="0.853263" stroke-miterlimit="10" stroke-linecap="round" stroke-linejoin="round"/>
<path d="M51.8768 15.9745C51.8768 15.9745 41.0164 31.7918 40.7337 34.0693C40.4511 36.3469 45.4769 50.9989 46.9893 53.9772C48.5018 56.9554 60.5946 64.2955 63.4484 64.7411C66.3021 65.1867 69.5898 62.1287 70.5928 59.5634C71.5948 56.9997 75.3551 50.08 75.6626 46.0604C75.7776 44.5589 72.6498 27.2693 71.2367 26.2499C69.8235 25.2304 51.8768 15.9745 51.8768 15.9745Z" fill="#9D9D9D" stroke="#111311" stroke-width="0.853263" stroke-miterlimit="10" stroke-linecap="round" stroke-linejoin="round"/>
<path d="M54.6558 39.7609C54.6558 39.7609 51.4894 37.9578 49.2645 40.7574" stroke="#111311" stroke-width="0.853263" stroke-miterlimit="10" stroke-linecap="round" stroke-linejoin="round"/>
<path d="M63.774 37.4929C63.774 37.4929 64.784 33.9749 68.7992 35.5452" stroke="#111311" stroke-width="0.853263" stroke-miterlimit="10" stroke-linecap="round" stroke-linejoin="round"/>
<path d="M53.1132 34.8919C53.1132 34.8919 47.889 33.8641 45.9557 37.4087" stroke="#111311" stroke-width="0.853263" stroke-miterlimit="10" stroke-linecap="round" stroke-linejoin="round"/>
<path d="M60.5344 32.3125C60.5344 32.3125 63.7489 28.6808 67.6089 30.592" stroke="#111311" stroke-width="0.853263" stroke-miterlimit="10" stroke-linecap="round" stroke-linejoin="round"/>
<path d="M63.9547 45.1073C63.9547 45.1073 62.0115 47.4704 59.5642 46.4441" stroke="#111311" stroke-width="0.853263" stroke-miterlimit="10" stroke-linecap="round" stroke-linejoin="round"/>
<path d="M68.6839 47.0372C68.6839 47.0372 64.8111 51.7238 55.7535 51.5774C55.7535 51.5774 61.1489 56.5485 64.7694 55.7142C68.3908 54.8799 68.6839 47.0372 68.6839 47.0372Z" fill="#9D9D9D" stroke="#111311" stroke-width="0.853263" stroke-miterlimit="10" stroke-linecap="round" stroke-linejoin="round"/>
<path d="M42.6479 42.8612C42.6479 42.8612 39.92 41.2038 39.0139 44.8555C38.1085 48.5082 45.4248 50.4795 45.4248 50.4795L42.6479 42.8612Z" fill="#9D9D9D" stroke="#111311" stroke-width="0.853263" stroke-miterlimit="10" stroke-linecap="round" stroke-linejoin="round"/>
<path d="M73.3989 32.9704C73.3989 32.9704 73.5792 31.4943 74.9852 32.0332C76.3926 32.5712 78.3782 37.198 77.8638 39.7668C77.3483 42.3355 75.6281 42.1951 75.6281 42.1951L73.3989 32.9704Z" fill="#9D9D9D" stroke="#111311" stroke-width="0.853263" stroke-miterlimit="10" stroke-linecap="round" stroke-linejoin="round"/>
<path d="M47.3037 70.3706C47.3037 70.3706 26.3637 82.0226 25.2446 84.3672C24.1255 86.7127 29.4185 159.916 29.4185 159.916C29.4185 159.916 5.4366 202.106 9.13024 210.168C12.8229 218.231 32.8893 227.515 33.7098 228.995C34.532 230.475 47.5502 193.363 52.9243 179.341C58.2992 165.318 67.3922 139.916 69.2154 127.654C71.0385 115.392 68.2324 98.6562 67.2341 93.1306C66.2368 87.6043 64.4038 77.9683 64.4038 77.9683L47.3037 70.3706Z" fill="#111311" stroke="#111311" stroke-width="0.853263" stroke-miterlimit="10" stroke-linecap="round" stroke-linejoin="round"/>
<path d="M52.1299 62.7892C52.1299 62.7892 64.8285 77.9591 64.0582 78.5749C63.2886 79.1898 53.7888 90.3765 53.7888 90.3765L43.3719 70.9981L52.1299 62.7892Z" fill="#111311" stroke="#111311" stroke-width="0.853263" stroke-miterlimit="10" stroke-linecap="round" stroke-linejoin="round"/>
<path d="M75.4233 78.9648C75.4233 78.9648 85.4328 95.3383 89.0516 106.718C92.6704 118.098 92.6261 137.708 91.7033 145.323L89.9624 159.69C89.9624 159.69 90.6626 196.531 91.5749 202.747C92.4873 208.963 93.7582 220.468 93.7582 220.468C93.7582 220.468 95.8187 219.966 96.5769 212.335C97.3343 204.703 98.4544 173.466 97.6394 160.954C96.8227 148.443 98.334 127.974 97.2927 124.196L96.2506 120.418L114.494 116.744C114.494 116.744 104.789 105.244 103.16 88.9082C102.419 81.4753 99.2877 77.2346 97.3353 75.4708C95.3845 73.7072 79.9513 70.4702 77.2952 70.3896C74.6399 70.309 75.4233 78.9648 75.4233 78.9648Z" fill="#111311" stroke="#111311" stroke-width="0.853263" stroke-miterlimit="10" stroke-linecap="round" stroke-linejoin="round"/>
<path d="M73.5627 79.0871C73.5627 79.0871 74.3499 76.8638 75.3192 77.309C76.2878 77.7533 84.2611 83.6258 85.1695 83.1803C86.0787 82.7358 77.9602 69.7839 76.3219 67.8627C74.6836 65.9423 72.9577 64.7203 72.9577 64.7203L72.5455 68.0387L73.5627 79.0871Z" fill="#111311" stroke="#111311" stroke-width="0.853263" stroke-miterlimit="10" stroke-linecap="round" stroke-linejoin="round"/>
<path d="M90.247 80.9023C90.247 80.9023 94.116 101.034 93.9867 109.536L90.247 80.9023Z" fill="#9D9D9D"/>
<path d="M90.247 80.9023C90.247 80.9023 94.116 101.034 93.9867 109.536" stroke="#111311" stroke-width="0.853263" stroke-miterlimit="10" stroke-linecap="round" stroke-linejoin="round"/>
<path d="M89.4765 120.566C89.4765 120.566 94.7009 106.613 95.6346 105.834C96.5692 105.054 103.704 102.691 104.273 102.6C104.843 102.51 108.85 106.207 109.451 106.987C110.052 107.765 112.84 110.048 112.146 111.138C111.452 112.23 109.764 111.204 108.798 111.113C107.833 111.023 102.907 113.594 102.578 113.996C102.248 114.399 100.286 117.826 99.6104 118.773C98.9344 119.721 89.4765 120.566 89.4765 120.566Z" fill="#9D9D9D" stroke="#111311" stroke-width="0.853263" stroke-miterlimit="10" stroke-linecap="round" stroke-linejoin="round"/>
<path d="M110.617 108.343C110.617 108.343 108.881 107.41 108.298 107.643C107.715 107.876 100.836 110.398 100.412 110.839C99.9873 111.28 99.4371 111.996 99.4371 111.996" stroke="#111311" stroke-width="0.853263" stroke-miterlimit="10" stroke-linecap="round" stroke-linejoin="round"/>
<path d="M97.9128 109.673C97.9128 109.673 99.1978 108.255 100.376 107.693C101.557 107.13 105.585 105.972 106.066 105.826C106.547 105.679 108.261 106.034 108.261 106.034" stroke="#111311" stroke-width="0.853263" stroke-miterlimit="10" stroke-linecap="round" stroke-linejoin="round"/>
<path d="M105.582 104.082C105.582 104.082 97.9286 106.146 97.3893 106.768L96.8507 107.391" stroke="#111311" stroke-width="0.853263" stroke-miterlimit="10" stroke-linecap="round" stroke-linejoin="round"/>
<path d="M97.1812 118.817C97.1812 118.817 104.717 114.407 107.923 113.295C111.128 112.185 117.037 115.388 118.021 117.069C119.006 118.75 119.59 126.396 118.729 131.963C117.867 137.531 117.395 139.958 113.537 140.831C109.679 141.705 104.539 141.927 104.011 142.053C103.485 142.18 104.3 131.49 101.814 125.431C99.3286 119.372 97.1812 118.817 97.1812 118.817Z" fill="#111311" stroke="#111311" stroke-width="0.853263" stroke-miterlimit="10" stroke-linecap="round" stroke-linejoin="round"/>
<path d="M87.8746 121.267C87.8746 121.267 87.0934 141.285 88.1352 143.85C89.177 146.415 92.6025 146.21 96.2393 145.671C99.8744 145.132 105.234 144.404 105.553 143.199C105.873 141.996 107.151 130.308 105.908 125.257C104.664 120.205 101.903 116.42 99.2966 116.88C96.6894 117.339 88.2415 118.306 87.8746 121.267Z" fill="#111311" stroke="#111311" stroke-width="0.853263" stroke-miterlimit="10" stroke-linecap="round" stroke-linejoin="round"/>
<path d="M68.1218 151.82L91.0349 136.103L82.7939 129.18L65.1844 134.696C65.1844 134.696 68.4561 147.164 68.1218 151.82Z" fill="#9D9D9D" stroke="#111311" stroke-width="0.853263" stroke-miterlimit="10" stroke-linecap="round" stroke-linejoin="round"/>
<path d="M56.4831 160.842C56.4831 160.842 58.6615 161.048 61.9694 158.784C65.278 156.52 68.2102 155.079 68.2829 147.786C68.3568 140.49 66.3158 129.131 64.8579 127.561C63.3999 125.991 52.7096 126.699 52.3499 127.38C51.9908 128.063 58.9767 141.751 58.7315 149.315C58.4862 156.88 56.4831 160.842 56.4831 160.842Z" fill="#111311" stroke="#111311" stroke-width="0.853263" stroke-miterlimit="10" stroke-linecap="round" stroke-linejoin="round"/>
<path d="M28.5393 85.0463C28.5393 85.0463 27.3807 81.846 24.5519 84.2693C21.7213 86.694 19.4341 94.0671 20.0861 103.294C20.7382 112.52 20.9574 150.92 22.2881 155.771C23.6178 160.622 24.8457 165.178 28.2334 165.641C31.6217 166.105 42.9824 165.604 50.9936 163.209C59.0046 160.817 59.7494 151.436 58.1586 143.123C56.5669 134.81 52.6214 127.706 50.0055 125.454C47.3905 123.202 46.2064 120.513 43.9265 114.426C41.6466 108.339 36.6538 92.9744 35.0097 90.6699" fill="#111311"/>
<path d="M28.5393 85.0463C28.5393 85.0463 27.3807 81.846 24.5519 84.2693C21.7213 86.694 19.4341 94.0671 20.0861 103.294C20.7382 112.52 20.9574 150.92 22.2881 155.771C23.6178 160.622 24.8457 165.178 28.2334 165.641C31.6217 166.105 42.9824 165.604 50.9936 163.209C59.0046 160.817 59.7494 151.436 58.1586 143.123C56.5669 134.81 52.6214 127.706 50.0055 125.454C47.3905 123.202 46.2064 120.513 43.9265 114.426C41.6466 108.339 36.6538 92.9744 35.0097 90.6699" stroke="#111311" stroke-width="0.853263" stroke-miterlimit="10" stroke-linecap="round" stroke-linejoin="round"/>
<path d="M35.4738 139.01C34.6991 139.58 33.9065 140.084 33.104 140.49" stroke="#111311" stroke-width="0.853263" stroke-miterlimit="10" stroke-linecap="round" stroke-linejoin="round"/>
<path d="M45.4319 127.842C45.4319 127.842 41.9562 133.305 37.487 137.37" stroke="#111311" stroke-width="0.853263" stroke-miterlimit="10" stroke-linecap="round" stroke-linejoin="round"/>
<path d="M90.9858 123.221C90.9858 123.221 70.2638 123.305 64.9896 122.655C59.716 122.006 52.5517 118.382 52.5517 118.382C52.5517 118.382 43.9796 113.596 42.154 112.392C40.3294 111.188 35.7339 110.751 34.4091 111.213C33.0844 111.675 30.0144 113.736 30.2542 115.229C30.4941 116.722 32.2892 115.864 33.214 115.217C34.1395 114.57 35.6024 114.12 35.6024 114.12L39.9351 115.562L40.6274 116.806C40.6274 116.806 34.358 117.385 33.4689 117.741C32.5789 118.098 29.5361 123.396 28.9757 124.52C28.4154 125.643 28.8512 125.537 29.686 125.616L30.5217 125.696C30.5217 125.696 29.819 127.982 30.619 128.352C31.4192 128.722 32.6049 128.247 32.6049 128.247C32.6049 128.247 33.4549 129.358 33.8727 129.398C34.2906 129.438 38.9099 127.377 39.66 127.007C40.4093 126.638 46.2379 128.516 47.7694 128.662C49.3026 128.808 55.1685 129.22 55.1685 129.22C55.1685 129.22 82.2672 140.331 85.9566 141.271C89.646 142.21 92.1708 142.304 94.0975 138.076C96.0233 133.847 94.1175 124.107 90.9858 123.221Z" fill="#9D9D9D" stroke="#111311" stroke-width="0.853263" stroke-miterlimit="10" stroke-linecap="round" stroke-linejoin="round"/>
<path d="M32.4865 127.81C32.4865 127.81 36.7511 123.87 37.7895 123.388C38.8277 122.907 40.8508 122.374 40.8508 122.374" stroke="#111311" stroke-width="0.853263" stroke-miterlimit="10" stroke-linecap="round" stroke-linejoin="round"/>
<path d="M30.3442 125.315L34.8006 120.958L39.1604 119.632" stroke="#111311" stroke-width="0.853263" stroke-miterlimit="10" stroke-linecap="round" stroke-linejoin="round"/>
</svg>
