<svg width="145" height="270" viewBox="0 0 145 270" fill="none" xmlns="http://www.w3.org/2000/svg">
<path d="M96.3117 44.0356C91.4351 56.2292 75.141 61.5879 59.9179 56.0056C44.6943 50.4222 36.3058 36.0099 41.1823 23.8163C46.0577 11.6214 62.3518 6.26262 77.5754 11.846C92.7989 17.4295 101.188 31.841 96.3117 44.0356Z" fill="#21A038"/>
<path d="M41.1815 23.816C46.0575 11.6217 62.3515 6.26254 77.5753 11.846C92.7991 17.4295 101.188 31.8413 96.3117 44.0356C91.4357 56.2299 75.1416 61.589 59.9178 56.0056C44.6941 50.4221 36.3055 36.0103 41.1815 23.816Z" stroke="#111311" stroke-width="0.830991" stroke-miterlimit="10" stroke-linecap="round" stroke-linejoin="round"/>
<path d="M50.4757 42.221C50.4757 42.221 44.3577 43.248 42.1572 39.6137C39.956 35.9793 45.342 26.6721 50.3826 22.7004C55.4224 18.7278 68.1286 18.1405 74.4464 19.5387C80.7632 20.9378 87.6745 26.7852 87.9961 32.1919C88.3184 37.6004 85.4524 42.5175 85.0826 44.174C84.713 45.8298 80.9702 45.4198 80.5541 44.5266C80.1365 43.6323 73.8476 30.5007 72.3226 29.7689C70.7977 29.0361 69.57 30.0322 67.695 30.8168C65.82 31.6014 51.761 35.9995 51.761 35.9995L50.4757 42.221Z" fill="#111311" stroke="#111311" stroke-width="0.830991" stroke-miterlimit="10" stroke-linecap="round" stroke-linejoin="round"/>
<path d="M53.1463 179.648L53.0116 161.923L44.2658 182.463L44.2664 182.465C42.5076 184.856 40.3876 187.961 39.2726 190.433C37.1597 195.122 42.3511 211.245 43.0556 209.683C43.7595 208.12 49.3629 187.669 49.3629 187.669C49.3629 187.669 50.3628 184.162 50.5244 181.34L53.1463 179.648Z" fill="#9D9D9D" stroke="#111311" stroke-width="0.830991" stroke-miterlimit="10" stroke-linecap="round" stroke-linejoin="round"/>
<path d="M49.7645 191.612C49.7645 191.612 44.0532 192.942 42.3507 204.936C41.8865 208.207 41.4969 243.05 40.6812 248.797L37.2976 272.634L67.3421 275.908L74.2633 253.679L73.9009 276.135L104.034 279.419C104.034 279.419 112.004 244.834 112.851 240.525C113.698 236.216 117.118 227.053 118.267 213.975C119.418 200.896 117.354 195.537 117.354 195.537L51.0877 187.092L49.7645 191.612Z" fill="#111311" stroke="#111311" stroke-width="0.830991" stroke-miterlimit="10" stroke-linecap="round" stroke-linejoin="round"/>
<path d="M70.5453 73.181C70.5453 73.181 54.7406 84.1117 51.2139 87.1949C47.5573 90.3917 46.1138 110.061 48.2485 123.956C50.3824 137.852 51.7245 159.121 51.3323 163.348C50.941 167.574 48.0402 192.785 48.0402 192.785C48.0402 192.785 71.6469 205.831 87.3334 204.989C103.022 204.145 114.865 198.611 114.865 198.611C114.865 198.611 118.531 155.252 119.867 145.791C121.203 136.332 123.609 104.788 123.136 93.6362C122.663 82.4841 116.522 75.1943 111.367 73.9884C106.21 72.7834 86.7214 69.7179 86.7214 69.7179L70.5453 73.181Z" fill="#9D9D9D" stroke="#111311" stroke-width="0.830991" stroke-miterlimit="10" stroke-linecap="round" stroke-linejoin="round"/>
<path d="M62.1738 69.8568C62.1738 69.8568 65.8957 89.0853 66.9261 89.3845C67.9573 89.6837 71.1896 87.0561 71.1896 87.0561L85.0251 70.1235L82.9112 52.8698C82.9112 52.8698 79.0958 61.4613 73.3613 66.6102C67.6277 71.7584 62.1738 69.8568 62.1738 69.8568Z" fill="#9D9D9D" stroke="#111311" stroke-width="0.830991" stroke-miterlimit="10" stroke-linecap="round" stroke-linejoin="round"/>
<path d="M74.8989 67.4105L64.5996 79.981L62.0257 69.7057L74.8989 67.4105Z" fill="#111311" stroke="#111311" stroke-width="0.830991" stroke-miterlimit="10" stroke-linecap="round" stroke-linejoin="round"/>
<path d="M72.9863 24.491C72.9863 24.491 64.8694 29.7358 58.7507 31.2972C52.6303 32.8585 49.6094 33.3651 49.6094 33.3651C49.6094 33.3651 49.7254 45.7775 49.7671 49.2653C49.8088 52.753 50.1791 58.6448 52.2048 61.3735C54.2314 64.1022 59.2029 70.6353 61.6289 72.433C64.0549 74.2297 68.7178 73.485 70.1356 72.9428C71.5533 72.4007 80.9217 61.1623 81.5514 59.5586C82.181 57.9558 82.3541 52.9594 82.3541 52.9594C82.3541 52.9594 86.0581 51.4124 86.8578 49.5494C87.6591 47.6866 87.4826 40.4223 86.5633 39.3465C85.6431 38.2714 83.771 39.1813 83.3512 40.2504C82.9314 41.3194 81.9065 42.8791 81.9065 42.8791C81.9065 42.8791 82.1831 39.9836 81.3796 38.0851C80.5771 36.1858 80.6745 35.4997 78.4575 33.1683C76.2413 30.8369 72.9863 24.491 72.9863 24.491Z" fill="#9D9D9D" stroke="#111311" stroke-width="0.830991" stroke-miterlimit="10" stroke-linecap="round" stroke-linejoin="round"/>
<path d="M60.273 50.3979L60.1431 54.2031C60.1431 54.2031 64.5743 54.5471 66.8941 52.5384" stroke="#111311" stroke-width="0.830991" stroke-miterlimit="10" stroke-linecap="round" stroke-linejoin="round"/>
<path d="M57.2514 57.7838C57.2514 57.7838 60.3116 59.2612 65.4881 58.2653C70.6644 57.2702 72.3826 53.7565 72.3826 53.7565" stroke="#111311" stroke-width="0.830991" stroke-miterlimit="10" stroke-linecap="round" stroke-linejoin="round"/>
<path d="M58.3481 40.9749C58.3481 40.9749 52.7733 38.3435 50.5725 41.6499" stroke="#111311" stroke-width="0.830991" stroke-miterlimit="10" stroke-linecap="round" stroke-linejoin="round"/>
<path d="M64.5752 39.5453C64.5752 39.5453 68.9577 36.053 72.8456 38.1398" stroke="#111311" stroke-width="0.830991" stroke-miterlimit="10" stroke-linecap="round" stroke-linejoin="round"/>
<path d="M57.0857 46.1C57.3472 47.2043 57.1179 48.1996 56.5755 48.3208C56.0339 48.4418 55.3814 47.6442 55.1205 46.539C54.8612 45.4334 55.0881 44.4385 55.6305 44.3174C56.1739 44.1969 56.8246 44.994 57.0857 46.1Z" fill="#111311"/>
<path d="M70.1471 43.8006C70.4078 44.9059 70.179 45.9003 69.6357 46.0215C69.0941 46.1424 68.4427 45.3454 68.181 44.2395C67.9211 43.1341 68.1489 42.1391 68.6923 42.0186C69.2348 41.8975 69.8854 42.6947 70.1471 43.8006Z" fill="#111311"/>
<path d="M96.2566 96.2626L101.641 140.134C101.641 140.134 100.762 142.156 100.984 143.454C101.206 144.752 101.26 145.817 101.26 145.817C101.26 145.817 95.8074 162.171 91.6393 172.094C87.4711 182.018 74.5373 203.255 74.587 205.806C74.6376 208.357 69.6858 226.887 70.7548 227.855C71.8238 228.824 74.4118 230.388 75.2012 230.477C75.9891 230.566 79.4831 231.383 80.6661 231.516C81.8492 231.649 86.2172 231.929 87.2364 230.346C88.2539 228.765 88.2011 227.698 86.9598 227.983C85.7194 228.267 83.7182 228.254 83.7182 228.254L83.1593 226.494C83.1593 226.494 85.15 219.296 84.9108 213.754C84.6707 208.213 84.5347 206.289 84.5347 206.289C84.5347 206.289 115.018 166.666 117.095 158.84C119.171 151.015 121.956 142.42 122.501 138.452C123.047 134.484 124.012 98.3251 123.374 94.2241C122.737 90.1231 122.691 86.0879 119.995 82.3913C117.298 78.6946 115.128 78.4505 113.55 78.2729" fill="#9D9D9D"/>
<path d="M96.2566 96.2626L101.641 140.134C101.641 140.134 100.762 142.156 100.984 143.454C101.206 144.752 101.26 145.817 101.26 145.817C101.26 145.817 95.8074 162.171 91.6393 172.094C87.4711 182.018 74.5373 203.255 74.587 205.806C74.6376 208.357 69.6858 226.887 70.7548 227.855C71.8238 228.824 74.4118 230.388 75.2012 230.477C75.9891 230.566 79.4831 231.383 80.6661 231.516C81.8492 231.649 86.2172 231.929 87.2364 230.346C88.2539 228.765 88.2011 227.698 86.9598 227.983C85.7194 228.267 83.7182 228.254 83.7182 228.254L83.1593 226.494C83.1593 226.494 85.15 219.296 84.9108 213.754C84.6707 208.213 84.5347 206.289 84.5347 206.289C84.5347 206.289 115.018 166.666 117.095 158.84C119.171 151.015 121.956 142.42 122.501 138.452C123.047 134.484 124.012 98.3251 123.374 94.2241C122.737 90.1231 122.691 86.0879 119.995 82.3913C117.298 78.6946 115.128 78.4505 113.55 78.2729" stroke="#111311" stroke-width="0.830991" stroke-miterlimit="10" stroke-linecap="round" stroke-linejoin="round"/>
<path d="M102.924 145.013C102.924 145.013 109.374 142.99 114.257 146.081" stroke="#111311" stroke-width="0.830991" stroke-miterlimit="10" stroke-linecap="round" stroke-linejoin="round"/>
<path d="M107.436 140.937C107.436 140.937 114.732 139.886 118.382 145.825" stroke="#111311" stroke-width="0.830991" stroke-miterlimit="10" stroke-linecap="round" stroke-linejoin="round"/>
<path d="M95.0146 164.343C94.015 166.949 93.004 169.487 92.0581 171.706C87.8113 181.67 74.6409 203.001 74.6886 205.56C74.7369 208.121 69.6836 226.726 70.768 227.698C71.8532 228.669 74.4817 230.236 75.284 230.324C76.0862 230.413 79.6346 231.229 80.8375 231.362C82.0397 231.495 86.4777 231.771 87.5153 230.183C88.5522 228.593 88.499 227.522 87.2371 227.81C85.9769 228.096 83.9424 228.085 83.9424 228.085L83.3763 226.32C83.3763 226.32 85.408 219.091 85.1713 213.529C84.9345 207.968 84.7987 206.036 84.7987 206.036C84.7987 206.036 99.7053 186.912 109.559 172.559C105.33 166.574 99.1862 164.803 95.0146 164.343Z" fill="#9D9D9D" stroke="#111311" stroke-width="0.830991" stroke-miterlimit="10" stroke-linecap="round" stroke-linejoin="round"/>
<path d="M79.4235 226.839C79.4235 226.839 81.2008 228.846 81.8231 229.491C82.4454 230.136 82.5996 230.73 83.9043 231.037" fill="#9D9D9D"/>
<path d="M79.4235 226.839C79.4235 226.839 81.2008 228.846 81.8231 229.491C82.4454 230.136 82.5996 230.73 83.9043 231.037" stroke="#111311" stroke-width="0.830991" stroke-miterlimit="10" stroke-linecap="round" stroke-linejoin="round"/>
<path d="M75.1841 227.368C75.1841 227.368 77.969 230.065 79.8271 230.754L75.1841 227.368Z" fill="#9D9D9D"/>
<path d="M75.1841 227.368C75.1841 227.368 77.969 230.065 79.8271 230.754" stroke="#111311" stroke-width="0.830991" stroke-miterlimit="10" stroke-linecap="round" stroke-linejoin="round"/>
<path d="M71.8298 226.467C71.8298 226.467 73.0141 228.55 74.5147 229.457L71.8298 226.467Z" fill="#9D9D9D"/>
<path d="M71.8298 226.467C71.8298 226.467 73.0141 228.55 74.5147 229.457" stroke="#111311" stroke-width="0.830991" stroke-miterlimit="10" stroke-linecap="round" stroke-linejoin="round"/>
<path d="M48.9223 186.4C48.9223 186.4 48.8623 192.101 49.0246 193.044C49.1867 193.988 48.5209 195.611 48.3226 199.136C48.1251 202.662 48.4849 206.403 46.4015 205.556C44.3167 204.706 44.1305 198.671 44.4868 197.167C44.843 195.664 42.8753 190.818 42.8753 190.818" fill="#9D9D9D"/>
<path d="M48.9223 186.4C48.9223 186.4 48.8623 192.101 49.0246 193.044C49.1867 193.988 48.5209 195.611 48.3226 199.136C48.1251 202.662 48.4849 206.403 46.4015 205.556C44.3167 204.706 44.1305 198.671 44.4868 197.167C44.843 195.664 42.8753 190.818 42.8753 190.818" stroke="#111311" stroke-width="0.830991" stroke-miterlimit="10" stroke-linecap="round" stroke-linejoin="round"/>
</svg>
