<svg width="105" height="246" viewBox="0 0 105 246" fill="none" xmlns="http://www.w3.org/2000/svg">
<path d="M76.5559 13.6384C76.5559 13.6384 77.7138 14.333 79.5679 15.0284C81.4212 15.723 86.0535 17.345 88.1389 19.6616C90.2234 21.9782 89.5289 27.5381 89.5289 27.5381" stroke="#111311" stroke-width="0.853263" stroke-miterlimit="10" stroke-linecap="round" stroke-linejoin="round"/>
<path d="M50.1087 32.9086L48.2936 36.8025" stroke="#111311" stroke-width="0.853263" stroke-miterlimit="10" stroke-linecap="round" stroke-linejoin="round"/>
<path d="M35.4788 20.6809C35.4788 20.6809 34.2152 26.6487 32.9387 28.0164C31.6622 29.3842 29.634 31.0003 30.3072 33.9842C30.9813 36.968 34.914 38.8324 34.902 39.3298C34.8901 39.8273 27.7705 41.1951 27.9642 43.4332C28.1587 45.6713 30.082 48.406 30.082 48.406C30.082 48.406 24.8173 50.1467 24.3719 53.1305C23.9265 56.1144 25.7192 59.0982 25.6928 60.2177C25.6655 61.3364 22.4964 63.8228 23.4436 65.8126C24.389 67.8015 26.6331 67.5532 26.7491 67.9261C26.8635 68.299 25.4573 69.9151 25.4334 70.91C25.4086 71.904 26.1339 72.7743 26.1339 72.7743H68.1563L56.2379 10.6107L40.4244 16.7022L35.4788 20.6809Z" fill="#21A038" stroke="#111311" stroke-width="0.853263" stroke-miterlimit="10" stroke-linecap="round" stroke-linejoin="round"/>
<path d="M92.4078 161.755C92.4078 161.755 101.075 181.48 102.213 186.322C103.35 191.164 103.89 212.717 102.086 221.111C98.7996 236.397 89.383 250.879 89.383 250.879H41.648L31.8048 204.917L46.1806 160.14L92.4078 161.755Z" fill="#9D9D9D" stroke="#111311" stroke-width="0.853263" stroke-miterlimit="10" stroke-linecap="round" stroke-linejoin="round"/>
<path d="M84.4913 199.771L80.4733 210.172L82.3872 250.656" stroke="#111311" stroke-width="0.853263" stroke-miterlimit="10" stroke-linecap="round" stroke-linejoin="round"/>
<path d="M91.6494 148.664C91.6494 148.664 100.083 155.836 101.093 158.527C102.104 161.216 102.749 178.97 103.214 182.018C103.678 185.067 101.635 187.935 101.635 187.935L94.3636 169.824C94.3636 169.824 93.6631 161.755 93.4967 161.216C93.3303 160.678 92 156.374 92 156.374L91.6494 148.664Z" fill="#9D9D9D" stroke="#111311" stroke-width="0.853263" stroke-miterlimit="10" stroke-linecap="round" stroke-linejoin="round"/>
<path d="M98.6008 165.162C98.6008 165.162 98.7023 168.389 99.0044 170.721C99.3064 173.052 100.277 177.356 98.2791 178.432" fill="#9D9D9D"/>
<path d="M98.6008 165.162C98.6008 165.162 98.7023 168.389 99.0044 170.721C99.3064 173.052 100.277 177.356 98.2791 178.432" stroke="#111311" stroke-width="0.853263" stroke-miterlimit="10" stroke-linecap="round" stroke-linejoin="round"/>
<path d="M61.0445 72.2699L72.5124 72.6283L80.7105 72.8988L90.2449 80.8776C90.2449 80.8776 98.2459 120.688 98.9021 123.199C99.5582 125.709 92.1075 144.539 91.5265 146.331C90.9445 148.125 92.407 161.754 92.407 161.754C92.407 161.754 88.738 165.161 76.864 166.775C64.9891 168.388 51.3028 163.368 51.3028 163.368C51.3028 163.368 60.3056 139.696 62.228 126.964C62.228 126.964 63.9004 102.397 63.3526 95.4036C62.8048 88.4094 61.0445 72.2699 61.0445 72.2699Z" fill="#21A038" stroke="#111311" stroke-width="0.853263" stroke-miterlimit="10" stroke-linecap="round" stroke-linejoin="round"/>
<path d="M89.6517 131.195L71.087 140.611" stroke="#111311" stroke-width="0.853263" stroke-miterlimit="10" stroke-linecap="round" stroke-linejoin="round"/>
<path d="M88.5747 134.424L79.966 138.728" stroke="#111311" stroke-width="0.853263" stroke-miterlimit="10" stroke-linecap="round" stroke-linejoin="round"/>
<path d="M57.9036 59.0884C57.9036 59.0884 64.8013 82.9704 65.693 87.1974C66.5855 91.4245 75.4168 96.3973 80.829 93.6618C86.2413 90.9271 84.5032 85.7051 83.5876 82.4729C82.6712 79.2399 80.7113 72.8993 80.7113 72.8993L82.7984 53.5038C82.7984 53.5038 76.2462 62.2071 73.8596 63.2011C71.473 64.196 57.9036 59.0884 57.9036 59.0884Z" fill="#9D9D9D" stroke="#111311" stroke-width="0.853263" stroke-miterlimit="10" stroke-linecap="round" stroke-linejoin="round"/>
<path d="M70.8083 65.3709L79.847 74.0929L82.0672 55.3809L70.8083 65.3709Z" fill="#111311" stroke="#111311" stroke-width="0.853263" stroke-miterlimit="10" stroke-linecap="round" stroke-linejoin="round"/>
<path d="M80.1641 73.1418L79.6889 81.7043" stroke="#111311" stroke-width="0.853263" stroke-miterlimit="10" stroke-linecap="round" stroke-linejoin="round"/>
<path d="M80.7727 70.9261C80.7727 70.9261 93.5461 107.418 94.9599 115.667C96.3738 123.916 96.6887 125.71 96.7987 128.579C96.9088 131.447 94.6041 137.725 94.6041 137.725C94.6041 137.725 103.661 126.606 103.717 116.923C103.772 107.238 97.1938 77.9886 94.1237 76.2155C81.9204 69.1684 80.7727 70.9261 80.7727 70.9261Z" fill="#111311" stroke="#111311" stroke-width="0.853263" stroke-miterlimit="10" stroke-linecap="round" stroke-linejoin="round"/>
<path d="M92.63 88.918C92.63 88.918 98.084 105.332 97.4301 117.575" stroke="#111311" stroke-width="0.853263" stroke-miterlimit="10" stroke-linecap="round" stroke-linejoin="round"/>
<path d="M49.2899 30.5038L55.0844 22.2979L81.8999 49.5256C81.8999 49.5256 80.2702 65.4398 80.2583 65.9372C80.2463 66.4347 81.9204 69.1694 81.9204 69.1694C81.9204 69.1694 82.6517 69.7914 83.2515 70.6617C83.8522 71.5321 83.231 71.5321 83.0766 72.7753C82.9222 74.0185 83.7771 74.6405 84.3838 75.2625C84.9905 75.8837 86.4666 76.5057 87.325 77.0032C88.1834 77.4998 87.4103 78.6184 86.7618 79.7379C86.1125 80.8565 85.191 82.9709 86.2559 85.2082C87.3207 87.4463 87.9513 87.0725 89.7739 88.8132C91.5964 90.5538 88.9471 92.1708 88.9471 92.1708C88.9471 92.1708 90.3234 91.7971 91.4514 91.425C92.5794 91.0513 93.1067 89.8081 92.6306 88.9378C92.1545 88.0674 91.2287 85.2082 91.6143 84.7107C91.9992 84.2141 95.5223 82.4734 96.5505 81.1048C97.5778 79.7379 96.4651 79.4896 97.3474 78.9921C98.2297 78.4947 99.9977 77.3752 100.413 75.6345C100.828 73.8947 98.7655 71.7804 99.4021 71.1592C100.039 70.5372 102.43 66.7094 102.458 65.5908C102.484 64.4713 101.068 62.5788 101.068 62.5788C101.068 62.5788 101.991 61.8347 102.576 58.2288C103.161 54.6238 100.328 53.5043 100.128 51.5154C99.9277 49.5256 102.854 46.7908 102.898 39.8282C102.942 32.8664 91.4309 30.7529 91.0794 29.8817C90.7278 29.0114 91.134 27.6436 90.93 25.7792C90.727 23.914 86.2055 20.6818 86.2055 20.6818C86.2055 20.6818 86.7473 18.8166 87.1509 17.5734C87.5537 16.3302 86.9598 15.2116 84.7703 13.2218C82.58 11.2328 71.9901 1.90835 67.5387 0.913444C63.0863 -0.0814606 55.6339 4.76764 54.7508 5.26509C53.8685 5.76254 46.824 4.02189 44.6687 5.76254C42.5125 7.50235 41.8188 10.4871 41.2906 11.7303C40.7633 12.9735 38.8989 12.9735 37.7495 14.2167C36.6002 15.4599 34.7222 26.2767 34.7222 26.2767" fill="#21A038"/>
<path d="M49.2899 30.5038L55.0844 22.2979L81.8999 49.5256C81.8999 49.5256 80.2702 65.4398 80.2583 65.9372C80.2463 66.4347 81.9204 69.1694 81.9204 69.1694C81.9204 69.1694 82.6517 69.7914 83.2515 70.6617C83.8522 71.5321 83.231 71.5321 83.0766 72.7753C82.9222 74.0185 83.7771 74.6405 84.3838 75.2625C84.9905 75.8837 86.4666 76.5057 87.325 77.0032C88.1834 77.4998 87.4103 78.6184 86.7618 79.7379C86.1125 80.8565 85.191 82.9709 86.2559 85.2082C87.3207 87.4463 87.9513 87.0725 89.7739 88.8132C91.5964 90.5539 88.9471 92.1708 88.9471 92.1708C88.9471 92.1708 90.3234 91.7971 91.4514 91.425C92.5794 91.0513 93.1067 89.8081 92.6306 88.9378C92.1545 88.0674 91.2287 85.2082 91.6144 84.7107C91.9992 84.2141 95.5223 82.4735 96.5505 81.1048C97.5778 79.7379 96.4651 79.4896 97.3474 78.9921C98.2297 78.4947 99.9977 77.3752 100.413 75.6345C100.828 73.8947 98.7655 71.7804 99.4021 71.1592C100.039 70.5372 102.43 66.7094 102.458 65.5908C102.484 64.4713 101.068 62.5788 101.068 62.5788C101.068 62.5788 101.991 61.8347 102.576 58.2288C103.161 54.6238 100.328 53.5043 100.128 51.5154C99.9277 49.5256 102.854 46.7908 102.898 39.8282C102.942 32.8664 91.4309 30.7529 91.0794 29.8817C90.7278 29.0114 91.134 27.6436 90.93 25.7792C90.727 23.914 86.2055 20.6818 86.2055 20.6818C86.2055 20.6818 86.7473 18.8166 87.1509 17.5734C87.5537 16.3302 86.9598 15.2116 84.7703 13.2218C82.58 11.2328 71.9901 1.90835 67.5387 0.913444C63.0863 -0.0814606 55.6339 4.76764 54.7508 5.26509C53.8685 5.76254 46.824 4.02189 44.6687 5.76254C42.5125 7.50235 41.8188 10.4871 41.2906 11.7303C40.7633 12.9735 38.8989 12.9735 37.7495 14.2167C36.6002 15.4599 34.7222 26.2767 34.7222 26.2767" stroke="#111311" stroke-width="0.853263" stroke-miterlimit="10" stroke-linecap="round" stroke-linejoin="round"/>
<path d="M60.3243 68.2357C60.3243 68.2357 73.305 113.873 73.8784 119.792C74.4526 125.709 54.1458 164.444 50.0041 172.513C45.8632 180.583 36.8391 205.15 35.3791 213.579C33.9192 222.007 32.7793 232.049 32.7793 232.049C32.7793 232.049 21.9667 226.849 14.9025 222.366C7.83837 217.883 6.64381 215.372 7.20355 214.476C7.76329 213.579 10.7233 202.461 10.7233 202.461C10.7233 202.461 4.61219 195.646 4.98762 194.928C5.36391 194.211 19.2533 146.511 19.2533 146.511C19.2533 146.511 22.9087 69.7596 24.3439 69.7596C25.7782 69.7596 60.3243 68.2357 60.3243 68.2357Z" fill="#111311" stroke="#111311" stroke-width="0.853263" stroke-miterlimit="10" stroke-linecap="round" stroke-linejoin="round"/>
<path d="M59.0136 90.0283L73.8786 119.792" stroke="#111311" stroke-width="0.853263" stroke-miterlimit="10" stroke-linecap="round" stroke-linejoin="round"/>
<path d="M32.9387 70.2973C32.9387 70.2973 22.2311 68.1453 20.3684 71.014C18.5049 73.8835 2.0838 122.481 1.07866 126.964C0.072658 131.447 30.8294 164.622 30.8294 164.622L46.6873 154.042L27.9599 127.681L38.1982 90.023" fill="#111311"/>
<path d="M32.9387 70.2973C32.9387 70.2973 22.2311 68.1453 20.3684 71.014C18.5049 73.8835 2.0838 122.481 1.07866 126.964C0.072658 131.447 30.8294 164.622 30.8294 164.622L46.6873 154.042L27.9599 127.681L38.1982 90.023" stroke="#111311" stroke-width="0.853263" stroke-miterlimit="10" stroke-linecap="round" stroke-linejoin="round"/>
<path d="M35.5093 101.727L27.8649 125.356L44.9677 150.994" stroke="#111311" stroke-width="0.853263" stroke-miterlimit="10" stroke-linecap="round" stroke-linejoin="round"/>
<path d="M37.594 94.3149L36.4985 97.8095" stroke="#111311" stroke-width="0.853263" stroke-miterlimit="10" stroke-linecap="round" stroke-linejoin="round"/>
<path d="M44.8861 150.992L27.763 165.25L33.5885 172.326L51.6041 158.437L44.8861 150.992Z" fill="#9D9D9D" stroke="#111311" stroke-width="0.853263" stroke-miterlimit="10" stroke-linecap="round" stroke-linejoin="round"/>
<path d="M50.3317 159.064C50.3317 159.064 64.6537 174.844 66.2502 175.562C67.8466 176.28 70.9918 179.687 71.8493 181.3C72.7068 182.914 73.9099 185.066 75.1429 185.962C76.3767 186.859 76.5303 187.935 74.3647 188.474C72.2 189.011 70.223 189.191 69.0284 186.68C67.8347 184.17 65.9183 181.838 65.9183 181.838L53.6816 190.984C53.6816 190.984 51.0476 181.3 50.737 179.327C50.4256 177.355 49.7865 174.127 49.7865 174.127L41.5499 166.237L50.3317 159.064Z" fill="#9D9D9D" stroke="#111311" stroke-width="0.853263" stroke-miterlimit="10" stroke-linecap="round" stroke-linejoin="round"/>
<path d="M30.2647 57.2334C30.2647 57.2334 29.0778 65.1883 29.757 67.9256C30.4763 70.8224 36.3049 70.3028 35.1095 74.1493C34.7238 75.3891 33.2178 76.7117 33.6888 78.1187C34.1718 79.5599 36.0686 79.6418 37.1224 80.46C39.0584 81.9644 38.3656 83.5779 39.0234 85.7068C39.4996 87.2452 41.1378 87.7768 41.5807 88.9969C42.1063 90.4415 41.0986 91.3451 42.7027 92.916C45.4954 95.6515 47.597 96.1481 47.9759 95.8998C48.3547 95.6516 47.6243 95.0295 49.3855 94.1592C51.1474 93.2889 54.5434 91.6728 53.9555 90.305C53.3762 88.9585 52.7968 87.613 52.7832 87.5797C53.6031 89.4679 56.1493 87.5609 56.8447 86.5669C58.4335 84.2989 56.0042 81.856 56.2884 79.4046C56.6024 76.6878 59.6622 75.2884 60.0043 72.5503C60.3388 69.8693 57.5546 68.0229 58.1613 65.5638C58.4369 64.4452 58.5913 63.2011 58.5913 63.2011C58.5913 63.2011 57.7816 60.7147 56.5588 59.8444C55.337 58.974 54.924 55.4927 54.8301 54.2495" fill="#21A038"/>
<path d="M30.2647 57.2334C30.2647 57.2334 29.0778 65.1883 29.757 67.9256C30.4763 70.8224 36.3049 70.3028 35.1095 74.1493C34.7238 75.3891 33.2178 76.7117 33.6888 78.1187C34.1718 79.5599 36.0686 79.6418 37.1224 80.46C39.0584 81.9644 38.3656 83.5779 39.0234 85.7068C39.4996 87.2452 41.1378 87.7768 41.5807 88.9969C42.1063 90.4415 41.0986 91.3451 42.7027 92.916C45.4954 95.6515 47.597 96.1481 47.9759 95.8998C48.3547 95.6515 47.6243 95.0295 49.3855 94.1592C51.1474 93.2889 54.5434 91.6728 53.9555 90.305C53.3762 88.9585 52.7968 87.613 52.7832 87.5797C53.6031 89.4679 56.1493 87.5609 56.8447 86.5669C58.4335 84.2989 56.0042 81.856 56.2884 79.4046C56.6024 76.6878 59.6622 75.2884 60.0043 72.5503C60.3388 69.8693 57.5546 68.0229 58.1613 65.5638C58.4369 64.4452 58.5913 63.2011 58.5913 63.2011C58.5913 63.2011 57.7816 60.7147 56.5588 59.8444C55.337 58.974 54.924 55.4927 54.8301 54.2495" stroke="#111311" stroke-width="0.853263" stroke-miterlimit="10" stroke-linecap="round" stroke-linejoin="round"/>
<path d="M52.6304 17.8126C52.6304 17.8126 42.579 32.4273 43.3478 35.5187C44.1157 38.6109 51.7857 58.4254 54.4078 60.393C57.0298 62.3598 67.5984 66.9981 71.1078 67.1389C74.6173 67.2788 77.1805 65.8735 78.6447 63.4844C80.1081 61.0961 85.6833 51.3988 85.7336 49.2912C85.7848 47.1828 81.2864 26.9528 80.4502 26.6721C79.614 26.3905 52.6304 17.8126 52.6304 17.8126Z" fill="#9D9D9D" stroke="black" stroke-width="0.853263" stroke-miterlimit="10" stroke-linecap="round" stroke-linejoin="round"/>
<path d="M67.99 33.3397C67.99 33.3397 67.7008 37.2408 68.06 38.5079C68.4192 39.7759 71.7214 44.3588 71.799 45.1395C71.8784 45.9194 70.5916 46.6993 68.8194 47.3819" stroke="#111311" stroke-width="0.853263" stroke-miterlimit="10" stroke-linecap="round" stroke-linejoin="round"/>
<path d="M45.304 41.559C45.304 41.559 43.1048 39.5884 41.926 41.9781C40.7471 44.3677 41.6545 47.6019 45.3812 50.276C49.1089 52.9501 49.9509 52.9508 49.9509 52.9508L45.304 41.559Z" fill="#9D9D9D" stroke="#111311" stroke-width="0.853263" stroke-miterlimit="10" stroke-linecap="round" stroke-linejoin="round"/>
<path d="M82.085 31.7243C82.085 31.7243 84.0757 30.7405 84.9989 33.2704C85.9213 35.7995 84.4998 42.2647 84.4998 42.2647L82.085 31.7243Z" fill="#9D9D9D" stroke="#111311" stroke-width="0.853263" stroke-miterlimit="10" stroke-linecap="round" stroke-linejoin="round"/>
<path d="M63.0264 52.2996C63.0264 52.2996 69.4992 51.9584 71.0683 51.1956C72.6367 50.4312 75.3273 47.2276 75.3273 47.2276C75.3273 47.2276 75.5001 54.42 72.1072 55.5673C69.7228 56.3734 63.0264 52.2996 63.0264 52.2996Z" fill="#9D9D9D" stroke="#111311" stroke-width="0.853263" stroke-miterlimit="10" stroke-linecap="round" stroke-linejoin="round"/>
<path d="M52.4201 37.1418C52.4201 37.1418 52.8305 33.363 59.3252 32.7914L52.4201 37.1418Z" fill="#9D9D9D"/>
<path d="M52.4201 37.1418C52.4201 37.1418 52.8305 33.363 59.3252 32.7914" stroke="#111311" stroke-width="0.853263" stroke-miterlimit="10" stroke-linecap="round" stroke-linejoin="round"/>
<path d="M67.8946 30.2003C67.8946 30.2003 71.8852 26.6223 76.1277 30.9011L67.8946 30.2003Z" fill="#9D9D9D"/>
<path d="M67.8946 30.2003C67.8946 30.2003 71.8852 26.6223 76.1277 30.9011" stroke="#111311" stroke-width="0.853263" stroke-miterlimit="10" stroke-linecap="round" stroke-linejoin="round"/>
<path d="M60.3615 39.0568C60.7216 40.2167 60.3906 41.3474 59.6205 41.5841C58.8506 41.8189 57.9337 41.0703 57.5729 39.9106C57.2126 38.7499 57.5435 37.6192 58.3136 37.3825C59.0835 37.1477 60.0004 37.8964 60.3615 39.0568Z" fill="#111311"/>
<path d="M73.6277 35.3809C73.9885 36.5414 73.6565 37.6723 72.8868 37.9077C72.1174 38.1439 71.2004 37.3942 70.8396 36.2337C70.4783 35.0742 70.81 33.9425 71.5797 33.7071C72.3494 33.4717 73.2669 34.2203 73.6277 35.3809Z" fill="#111311"/>
</svg>
