<svg width="175" height="275" viewBox="0 0 175 275" fill="none" xmlns="http://www.w3.org/2000/svg">
<path d="M155.42 162.423C153.783 157.851 144.938 96.3163 144.938 96.3163C140.844 104.755 133.686 147.625 133.686 147.625L132.681 170.628L131.846 174.878C136.424 172.253 147.465 167.257 153.355 175.888C153.514 175.478 153.636 175.131 153.713 174.856C155.298 169.187 157.057 166.996 155.42 162.423Z" fill="#21A038"/>
<path d="M155.42 162.423C153.783 157.851 144.938 96.3163 144.938 96.3163C140.844 104.755 133.686 147.625 133.686 147.625L132.681 170.628L131.846 174.878C136.424 172.253 147.465 167.257 153.355 175.888C153.514 175.478 153.636 175.131 153.713 174.856C155.298 169.187 157.057 166.996 155.42 162.423Z" stroke="#111311" stroke-width="0.89071" stroke-miterlimit="10" stroke-linecap="round" stroke-linejoin="round"/>
<path d="M150.214 167.647C151.338 167.955 152.414 168.382 153.397 168.961" stroke="#111311" stroke-width="0.89071" stroke-miterlimit="10" stroke-linecap="round" stroke-linejoin="round"/>
<path d="M134.199 168.037C134.199 168.037 140.096 166.393 146.126 166.944" stroke="#111311" stroke-width="0.89071" stroke-miterlimit="10" stroke-linecap="round" stroke-linejoin="round"/>
<path d="M152.634 165.485C152.634 165.485 148.069 161.837 143.915 162.759" stroke="#111311" stroke-width="0.89071" stroke-miterlimit="10" stroke-linecap="round" stroke-linejoin="round"/>
<path d="M39.1516 276.173L45.9409 229.901L52.2842 204.757L126.729 209.092L131.075 227.951L128.095 285.125L90.5772 281.606L88.1592 243.325L85.681 246.756L80.7819 279.873L39.1516 276.173Z" fill="#111311" stroke="#111311" stroke-width="0.89071" stroke-miterlimit="10" stroke-linecap="round" stroke-linejoin="round"/>
<path d="M85.4414 80.7672C85.4414 80.7672 52.3536 86.5462 50.2805 87.362C48.2057 88.1767 48.7742 118.739 50.4322 130.007C52.0902 141.276 54.433 182.308 54.433 182.308L50.3318 211.421C50.3318 211.421 81.6217 215.171 94.3812 214.754C107.141 214.338 121.351 212.037 121.351 212.037C121.351 212.037 129 186.693 129.573 169.573C130.146 152.452 139.822 110.731 140.233 107.941C140.645 105.151 143.908 94.9514 143.908 94.9514C143.908 94.9514 120.941 85.1145 114.892 83.7382C108.844 82.361 94.4519 80.6037 85.4414 80.7672Z" fill="#21A038" stroke="#111311" stroke-width="0.89071" stroke-miterlimit="10" stroke-linecap="round" stroke-linejoin="round"/>
<path d="M76.9999 88.0174C76.9999 88.0174 79.9507 99.6763 88.8141 107.493" stroke="#111311" stroke-width="0.89071" stroke-miterlimit="10" stroke-linecap="round" stroke-linejoin="round"/>
<path d="M111.07 89.6705C111.07 89.6705 108.838 93.8315 105.504 98.2601" stroke="#111311" stroke-width="0.89071" stroke-miterlimit="10" stroke-linecap="round" stroke-linejoin="round"/>
<path d="M104.647 100.549L102.701 102.726" stroke="#111311" stroke-width="0.89071" stroke-miterlimit="10" stroke-linecap="round" stroke-linejoin="round"/>
<path d="M80.881 210.12C88.548 210.508 102.645 210.816 112.058 208.605" stroke="#111311" stroke-width="0.89071" stroke-miterlimit="10" stroke-linecap="round" stroke-linejoin="round"/>
<path d="M75.438 209.796C75.438 209.796 76.3071 209.87 77.8061 209.963" stroke="#111311" stroke-width="0.89071" stroke-miterlimit="10" stroke-linecap="round" stroke-linejoin="round"/>
<path d="M107.72 204.584C97.5664 204.965 82.2716 204.677 70.7771 200.659" stroke="#111311" stroke-width="0.89071" stroke-miterlimit="10" stroke-linecap="round" stroke-linejoin="round"/>
<path d="M118.537 204.162C118.537 204.162 115.955 204.413 111.83 204.584" stroke="#111311" stroke-width="0.89071" stroke-miterlimit="10" stroke-linecap="round" stroke-linejoin="round"/>
<path d="M119.182 190.197C112.774 193.09 100.609 197.841 88.918 198.315" stroke="#111311" stroke-width="0.89071" stroke-miterlimit="10" stroke-linecap="round" stroke-linejoin="round"/>
<path d="M123.806 188.019C123.806 188.019 122.93 188.479 121.382 189.204" stroke="#111311" stroke-width="0.89071" stroke-miterlimit="10" stroke-linecap="round" stroke-linejoin="round"/>
<path d="M81.0671 69.5636L80.4193 85.7794C80.4193 85.7794 83.7274 97.8824 94.8741 98.1666C105.806 98.4461 109.184 84.3171 109.184 84.3171L109.099 67.1293C109.099 67.1293 98.5571 74.459 93.3073 73.2436C88.0584 72.0283 81.0671 69.5636 81.0671 69.5636Z" fill="#9D9D9D" stroke="#111311" stroke-width="0.89071" stroke-miterlimit="10" stroke-linecap="round" stroke-linejoin="round"/>
<path d="M71.8212 49.8517C71.8212 49.8517 70.1782 47.0754 68.4027 49.2811C66.6273 51.4859 67.6061 57.9448 70.1458 59.557C72.6855 61.1691 73.4006 61.2362 73.4006 61.2362C73.4006 61.2362 75.6893 67.8183 77.0839 69.8218C78.4794 71.8254 89.2208 81.6981 92.007 82.4597C94.7932 83.2204 98.9711 82.7391 100.774 81.1602C102.578 79.5823 109.09 68.2083 110.222 65.4433C111.356 62.6783 111.566 62.0738 111.821 60.3504C112.076 58.6261 112.174 57.1375 112.174 57.1375C112.174 57.1375 115.551 53.0854 116.298 49.6599C117.046 46.2346 116.594 43.5702 114.88 42.9102C113.166 42.2494 110.715 45.7642 110.715 45.7642L107.083 26.1976C107.083 26.1976 105.702 20.824 104.006 20.0406C102.31 19.2571 89.3264 19.6606 83.6197 21.4962C77.9137 23.3327 72.3076 25.3028 71.5681 27.8553C70.8286 30.4078 71.8212 49.8517 71.8212 49.8517Z" fill="#9D9D9D" stroke="#111311" stroke-width="0.89071" stroke-miterlimit="10" stroke-linecap="round" stroke-linejoin="round"/>
<path d="M84.4533 24.3244C84.4533 24.3244 73.9224 25.4761 73.1095 27.1505C72.2967 28.8241 71.071 32.0159 71.8167 34.6145C72.5625 37.2131 72.1477 50.2043 72.1477 50.2043C72.1477 50.2043 73.2239 54.3899 72.1933 53.71C71.1636 53.0302 70.9443 48.147 70.6578 47.5369C70.3721 46.9268 66.9034 37.2657 65.9277 33.6728C64.9527 30.0809 68.4079 27.0982 69.2649 26.4006C70.121 25.7029 71.0352 24.6221 71.0352 24.6221C71.0352 24.6221 70.9288 18.9714 73.713 16.7039C76.4981 14.4372 94.9018 12.2731 96.4729 11.8372C98.0449 11.4004 100.014 8.27929 101.428 7.63391C102.842 6.98853 106.459 9.27226 108.166 14.2949C109.871 19.3166 109.487 20.6427 108.601 21.5315L107.717 22.4213C107.717 22.4213 110.261 23.0484 110.836 26.7985C111.412 30.5477 112.387 34.1396 111.962 37.0178C111.536 39.8951 110.436 45.4017 110.351 45.977C110.266 46.5532 109.698 45.9467 109.425 43.9757C109.151 42.0055 106.207 27.5309 105.691 25.9265C105.175 24.3221 104.473 22.7004 104.187 22.0902C103.9 21.4801 88.5795 20.6267 84.4533 24.3244Z" fill="#111311" stroke="#111311" stroke-width="0.89071" stroke-miterlimit="10" stroke-linecap="round" stroke-linejoin="round"/>
<path d="M92.2348 82.3995C95.0366 83.1634 99.2378 82.6798 101.052 81.0949C102.866 79.509 109.414 68.0857 110.554 65.3086C111.693 62.5314 111.904 61.9242 112.161 60.1924C112.417 58.4614 112.517 56.9654 112.517 56.9654L111.443 45.0251C111.336 45.16 111.249 45.273 111.183 45.3607C111.02 49.0022 110.68 56.0296 110.444 57.0226C110.123 58.372 108.465 59.721 106.992 59.8334C105.517 59.9458 98.8532 58.1928 95.8216 58.1592C92.7908 58.1256 91.6677 59.1484 89.2083 60.1725C86.7491 61.1958 81.6376 63.7254 80.3848 63.9843C79.132 64.2431 76.9831 63.1641 76.2083 61.8367C75.4323 60.511 72.7865 49.7766 72.7865 49.7766C72.7039 50.4422 71.8852 51.6512 71.8852 51.6512L73.5258 61.084C73.5258 61.084 75.8268 67.6948 77.23 69.7071C78.6322 71.7202 89.433 81.6356 92.2348 82.3995Z" fill="#111311"/>
<path d="M92.2348 82.3995C95.0366 83.1634 99.2378 82.6798 101.052 81.0949C102.866 79.509 109.414 68.0857 110.554 65.3086C111.693 62.5314 111.904 61.9242 112.161 60.1924C112.417 58.4614 112.517 56.9654 112.517 56.9654L111.443 45.0251C111.336 45.16 111.249 45.273 111.183 45.3607C111.02 49.0022 110.68 56.0296 110.444 57.0226C110.123 58.372 108.465 59.721 106.992 59.8334C105.517 59.9458 98.8532 58.1928 95.8216 58.1592C92.7908 58.1256 91.6677 59.1484 89.2083 60.1725C86.7491 61.1958 81.6376 63.7254 80.3848 63.9843C79.132 64.2431 76.9831 63.1641 76.2083 61.8367C75.4323 60.511 72.7865 49.7766 72.7865 49.7766C72.7039 50.4422 71.8852 51.6512 71.8852 51.6512L73.5258 61.084C73.5258 61.084 75.8268 67.6948 77.23 69.7071C78.6322 71.7202 89.433 81.6356 92.2348 82.3995Z" stroke="#111311" stroke-width="0.89071" stroke-miterlimit="10" stroke-linecap="round" stroke-linejoin="round"/>
<path d="M95.7157 40.9087C95.7157 40.9087 93.4186 43.0107 93.6867 43.7781C93.9559 44.5471 97.0359 58.4293 96.7091 59.8753C96.3831 61.3204 94.3055 61.8436 92.7677 61.1892C91.2301 60.5358 90.7271 56.0447 90.7271 56.0447" fill="#9D9D9D"/>
<path d="M95.7157 40.9087C95.7157 40.9087 93.4186 43.0107 93.6867 43.7781C93.9559 44.5471 97.0359 58.4293 96.7091 59.8753C96.3831 61.3204 94.3055 61.8436 92.7677 61.1892C91.2301 60.5358 90.7271 56.0447 90.7271 56.0447" stroke="#111311" stroke-width="0.89071" stroke-miterlimit="10" stroke-linecap="round" stroke-linejoin="round"/>
<path d="M97.8554 39.916C97.8554 39.916 102.558 37.4224 106.161 39.7748" stroke="#111311" stroke-width="2.67213" stroke-miterlimit="10" stroke-linecap="round" stroke-linejoin="round"/>
<path d="M86.1801 41.4288C86.1801 41.4288 79.6314 39.0729 76.2156 43.9869" stroke="#111311" stroke-width="2.67213" stroke-miterlimit="10" stroke-linecap="round" stroke-linejoin="round"/>
<path d="M84.8242 47.5273C84.9614 48.5655 84.5554 49.4817 83.9198 49.5747C83.2841 49.6668 82.6575 48.8992 82.5212 47.8608C82.3841 46.8226 82.7901 45.9064 83.4249 45.8144C84.0614 45.7213 84.688 46.4889 84.8242 47.5273Z" fill="#111311"/>
<path d="M82.4995 47.8619C82.3412 46.8264 82.7384 45.9108 83.3865 45.8169C84.0346 45.723 84.6883 46.4864 84.8465 47.5219C85.0047 48.5575 84.6076 49.4731 83.9595 49.567C83.3114 49.6609 82.6577 48.8975 82.4995 47.8619Z" stroke="#111311" stroke-width="0.89071" stroke-miterlimit="10" stroke-linecap="round" stroke-linejoin="round"/>
<path d="M101.288 45.0494C101.424 46.0868 101.02 47.0037 100.383 47.096C99.7474 47.188 99.1208 46.4204 98.9855 45.3829C98.8484 44.3447 99.2535 43.4285 99.8892 43.3364C100.526 43.2433 101.152 44.0109 101.288 45.0494Z" fill="#111311"/>
<path d="M98.9641 45.3872C98.8059 44.3516 99.203 43.436 99.8511 43.3422C100.499 43.2483 101.153 44.0116 101.311 45.0472C101.469 46.0828 101.072 46.9984 100.424 47.0922C99.776 47.1861 99.1223 46.4227 98.9641 45.3872Z" stroke="#111311" stroke-width="0.89071" stroke-miterlimit="10" stroke-linecap="round" stroke-linejoin="round"/>
<path d="M87.5403 66.4741C87.5403 66.4741 95.8912 69.158 101.459 63.9756" stroke="#111311" stroke-width="0.89071" stroke-miterlimit="10" stroke-linecap="round" stroke-linejoin="round"/>
<path d="M154.719 174.844C154.685 174.969 154.638 175.112 154.587 175.264C154.638 175.113 154.685 174.969 154.719 174.844Z" stroke="#111311" stroke-width="0.89071" stroke-miterlimit="10" stroke-linecap="round" stroke-linejoin="round"/>
<path d="M154.299 175.226C148.296 166.541 137.02 171.581 132.345 174.227L127.483 195.263L125.931 199.16C125.931 199.16 116.922 207.207 115.693 208.91C114.464 210.613 112.716 211.864 111.412 212.752C110.108 213.64 107.484 214.202 107.114 215.38C106.745 216.558 110.513 217.519 111.758 217.029C113.003 216.54 116.366 213.621 116.366 213.621L113.865 218.642L128.096 226.851C128.096 226.851 129.544 222.339 130.343 219.584C131.141 216.829 132.69 210.306 133.059 209.127C133.419 207.979 151.974 181.774 154.496 174.702C154.438 174.864 154.374 175.036 154.299 175.226Z" fill="#9D9D9D" stroke="#111311" stroke-width="0.89071" stroke-miterlimit="10" stroke-linecap="round" stroke-linejoin="round"/>
<path d="M49.3471 86.8405C49.3471 86.8405 44.978 90.2486 43.6628 93.9481C42.3477 97.6468 23.5941 143.728 19.6848 150.601C15.7763 157.474 14.5526 163.194 15.8631 166.136C17.1746 169.077 44.3003 194.02 44.3003 194.02C44.3003 194.02 46.1083 205.46 46.6559 208.33C47.2027 211.199 48.2238 216.124 48.2238 216.124L60.8985 211.491C60.8985 211.491 62.8105 214.289 64.1631 215.625C65.5159 216.96 67.3365 217.737 67.8931 216.583C68.449 215.427 66.6526 211.836 66.6526 211.836C66.6526 211.836 65.8566 209.346 65.9561 207.343C66.0556 205.34 63.716 201.496 62.8321 199.601C61.9491 197.706 53.556 190.269 53.556 190.269L38.5572 157.824L49.5145 129.315C49.5145 129.315 47.01 94.8696 49.3471 86.8405Z" fill="#9D9D9D" stroke="#111311" stroke-width="0.89071" stroke-miterlimit="10" stroke-linecap="round" stroke-linejoin="round"/>
<path d="M37.7613 157.692L49.2055 133.767C49.2055 133.767 46.1278 94.8569 48.4448 86.8435C48.4448 86.8435 44.1075 90.2447 42.8033 93.936C41.4992 97.6274 22.899 143.617 19.0213 150.476C15.1437 157.336 13.9302 163.045 15.2335 165.981C15.6024 166.815 17.7367 170.554 22.4422 173.942C24.5878 170.65 30.0431 163.045 39.8572 163.279L37.7613 157.692Z" fill="#21A038" stroke="#111311" stroke-width="0.89071" stroke-miterlimit="10" stroke-linecap="round" stroke-linejoin="round"/>
<path d="M24.0103 154.753C24.0103 154.753 30.0654 154.453 35.2603 157.312" stroke="#111311" stroke-width="0.89071" stroke-miterlimit="10" stroke-linecap="round" stroke-linejoin="round"/>
<path d="M32.1405 153.797C32.1405 153.797 36.9122 155.653 38.4221 157.653" stroke="#111311" stroke-width="0.89071" stroke-miterlimit="10" stroke-linecap="round" stroke-linejoin="round"/>
</svg>
