<svg width="122" height="224" viewBox="0 0 122 224" fill="none" xmlns="http://www.w3.org/2000/svg">
<g opacity="0.3">
<path d="M75.6169 155.642H132.396V197.946H75.6169V155.642ZM12.96 8.20374H69.7396V49.9147H13.2484V55.3645H69.7396V100.054H13.2484V105.502H69.7396V150.193H13.2484V155.642H69.7396V197.946H12.96V8.20374ZM75.6169 55.3645H132.396V100.054H75.6169V55.3645ZM75.6169 105.502H132.396V150.192H75.6169V105.502ZM132.396 49.9147H75.6169V8.20374H132.396V49.9147ZM8.27048 205.395H137.085V0.753906H8.27048V205.395Z" stroke="black" stroke-width="0.853263" stroke-miterlimit="10" stroke-linecap="round" stroke-linejoin="round"/>
<path d="M61.6017 20.6757L32.9558 44.3828" stroke="black" stroke-width="0.853263" stroke-miterlimit="10" stroke-linecap="round" stroke-linejoin="round"/>
<path d="M118.401 67.1021L89.755 90.8092" stroke="black" stroke-width="0.853263" stroke-miterlimit="10" stroke-linecap="round" stroke-linejoin="round"/>
<path d="M53.6988 167.365L25.053 191.072" stroke="black" stroke-width="0.853263" stroke-miterlimit="10" stroke-linecap="round" stroke-linejoin="round"/>
<path d="M46.5791 27.5902L33.4488 38.4559" stroke="black" stroke-width="0.853263" stroke-miterlimit="10" stroke-linecap="round" stroke-linejoin="round"/>
<path d="M116.219 61.67L103.089 72.5356" stroke="black" stroke-width="0.853263" stroke-miterlimit="10" stroke-linecap="round" stroke-linejoin="round"/>
<path d="M52.0115 174.773L38.8823 185.639" stroke="black" stroke-width="0.853263" stroke-miterlimit="10" stroke-linecap="round" stroke-linejoin="round"/>
<path d="M48.0598 122.42L34.9309 133.286" stroke="black" stroke-width="0.853263" stroke-miterlimit="10" stroke-linecap="round" stroke-linejoin="round"/>
<path d="M115.232 168.352L102.101 179.218" stroke="black" stroke-width="0.853263" stroke-miterlimit="10" stroke-linecap="round" stroke-linejoin="round"/>
<path d="M0.852234 205.26H145.072V223.176H0.852234V205.26Z" stroke="black" stroke-width="0.853263" stroke-miterlimit="10" stroke-linecap="round" stroke-linejoin="round"/>
</g>
</svg>
